<svg width="545" height="515" viewBox="0 0 545 515" fill="none" xmlns="http://www.w3.org/2000/svg">
<g clip-path="url(#clip0)">
<g opacity="0.1">
<path d="M543.58 296.538C534.08 369.178 475.13 445.598 429.14 441.648C396.5 438.838 391.36 397.318 357.57 392.878C318.43 387.738 293.97 439.358 262.68 476.878C256.779 484.153 250.24 490.887 243.14 496.998C242.14 497.878 241.04 498.728 239.97 499.548C237.634 501.376 235.201 503.075 232.68 504.638C225.582 509.187 217.635 512.248 209.32 513.638C208.46 513.778 207.59 513.888 206.71 513.988C200.088 514.661 193.401 514.323 186.88 512.988C89.1102 494.178 -39.3598 277.578 11.5202 207.268C48.5202 156.118 157.02 214.798 232.13 141.598C284.51 90.5979 262.03 32.4779 299.77 16.5379C370.85 -13.4721 563.41 144.928 543.58 296.538Z" fill="#9578FF"/>
<path d="M152.29 95.5896C158.95 91.3796 230.09 45.7696 220.72 20.8696C210.84 -5.37042 109.38 -14.1904 63.0001 38.5696C40.0001 64.6996 28.3601 108.5 44.1301 124.3C68.0001 148.13 145.81 99.6896 152.29 95.5896Z" fill="#FFA6B7"/>
</g>
<path d="M243.14 496.998C242.14 497.878 241.04 498.728 239.97 499.548C237.634 501.376 235.2 503.075 232.68 504.638C225.582 509.186 217.635 512.248 209.32 513.638C208.46 513.778 207.59 513.888 206.71 513.988C200.087 514.66 193.401 514.323 186.88 512.988C187.23 481.988 189.94 462.288 189.94 462.288L235.94 453.958L237.06 453.758C240.66 465.368 242.41 480.188 243.14 496.998Z" fill="#FF7394"/>
<path d="M223.18 321.429C223.18 321.429 220.74 323.869 221.55 328.739C222.36 333.609 210.18 337.689 206.93 331.179C203.68 324.669 205.3 306.799 212.61 309.239C219.92 311.679 227.24 317.369 223.18 321.429Z" fill="#F9C9B4"/>
<path d="M208.27 332.388C208.27 332.388 211.22 326.678 208.27 317.798C205.32 308.918 207.53 302.988 211.27 301.508" fill="white"/>
<path d="M208.27 332.388C208.27 332.388 211.22 326.678 208.27 317.798C205.32 308.918 207.53 302.988 211.27 301.508" stroke="black" stroke-miterlimit="10"/>
<path d="M217.62 317.7C219.34 319.36 223.77 321.28 227.2 320.61C230.02 320.06 226.68 317.51 228.2 315.15C228.832 314.024 228.994 312.694 228.65 311.45C231.3 310.9 231.93 309.66 229.73 307.51C228.82 306.63 227.48 305.25 229.09 302.66C229.756 301.757 230.199 300.708 230.38 299.6C230.66 296.987 230.181 294.348 229 292C229 292 201.22 293.64 217.63 317.69L217.62 317.7Z" fill="#FFDDCA"/>
<path d="M308.12 330.481C307.98 330.731 307.84 331.001 307.701 331.271C304.44 337.791 287.83 361.621 275.44 362.271C263.05 362.921 245.44 360.271 237.6 357.051C237.6 357.051 248.7 353.261 242.7 374.261C237.13 393.731 224.7 417.261 235.6 448.591C242.2 467.591 189.68 478.401 189.94 462.291C190.45 430.011 190.07 414.111 184.2 384.761C178.33 355.411 187.37 334.221 199.77 329.001C212.17 323.781 230.43 323.781 234.99 331.611C239.55 339.441 248.7 335.261 270.22 344.611C270.22 344.611 285.31 342.611 294.44 332.871C297.96 329.091 300.61 326.091 302.54 323.871C303.85 326.485 305.763 328.751 308.12 330.481Z" fill="#FFA6B7"/>
<path d="M228.64 296.12C228.64 296.12 220.32 296.79 217.84 306.35C214.37 319.771 220.46 342.98 219.84 358.68C219.396 368.241 216.943 377.601 212.64 386.15L206.1 384.84C206.1 384.84 210.03 313.551 205.45 304.391C200.87 295.231 217.87 284.12 225.07 288.69C232.27 293.26 231.26 289.58 228.64 296.12Z" fill="#4024A3"/>
<path d="M234.34 289.998C233.89 297.268 225.25 296.358 225.25 296.358C218 294.998 212.36 305.168 214.73 321.998C220.62 363.748 206.25 382.728 202.73 382.568L198.03 383.568L197.57 376.298L196.2 384.928C186.2 387.208 180.3 384.928 180.3 384.928L183.48 373.118C183.48 373.118 190.89 357.928 188.3 329.238C188.37 327.538 188.41 325.768 188.41 323.958C188.41 282.148 203.99 280.138 212.23 278.958C224.34 277.218 234.8 282.688 234.34 289.998Z" fill="#532BC3"/>
<path d="M321.84 318.569C316.84 322.319 311.43 324.569 308.12 330.479C305.765 328.755 303.853 326.496 302.54 323.889C305.6 320.289 306.83 318.569 306.83 318.569C306.18 308.129 311.4 302.259 312.05 308.779C312.7 315.299 317.92 302.909 323.14 304.219C328.36 305.529 327.06 314.659 321.84 318.569Z" fill="#F9C9B4"/>
<path d="M183.44 373.13L178.44 382.67L168 379.49C168 379.49 186.64 366.93 188.27 329.25C190.85 357.94 183.44 373.13 183.44 373.13Z" fill="#4024A3"/>
<path d="M331.71 152.108C327.53 157.678 325.86 162.848 324.62 169.698C322.37 182.088 328.62 203.028 332.56 204.178C334.86 204.838 352.56 203.908 365.76 195.808C381.84 185.928 396.25 162.468 372.56 144.328C361.22 135.648 340.81 139.998 331.71 152.108Z" fill="#9578FF"/>
<path d="M331.45 203.398C330.81 203.898 328.7 205.268 328.04 207.138C327.38 209.008 331.78 209.658 332.04 208.558C332.3 207.458 331.16 204.938 331.93 204.168C332.7 203.398 331.45 203.398 331.45 203.398Z" fill="#532BC3"/>
<path d="M328.45 207.788C328.97 208.348 331.12 209.108 331.5 208.418C331.88 207.728 330.5 206.418 329.17 206.678C327.84 206.938 328.45 207.788 328.45 207.788Z" fill="#9578FF"/>
<path d="M331.61 203.609C332.91 208.029 347.02 225.489 332.12 231.769C317.22 238.049 336.4 237.439 343.81 241.999C351.22 246.559 311.87 246.929 323.47 252.109C335.07 257.289 360.85 254.449 347.82 258.639C334.79 262.829 312.67 260.999 322 267.139C331.33 273.279 329.14 294.629 329.14 294.629" stroke="#532BC3" stroke-miterlimit="10" stroke-linecap="round"/>
</g>
<defs>
<clipPath id="clip0">
<rect width="545" height="514.32" fill="white"/>
</clipPath>
</defs>
</svg>
