<svg width="35" height="16" viewBox="0 0 35 16" fill="none" xmlns="http://www.w3.org/2000/svg">
<rect x="14.167" y="0.5" width="20.3333" height="15" rx="2.5" stroke="#3A3A3A"/>
<path d="M16.8536 2.14645C16.6583 1.95118 16.3417 1.95118 16.1464 2.14645C15.9512 2.34171 15.9512 2.65829 16.1464 2.85355L16.8536 2.14645ZM32.3573 2.84973C32.5505 2.65238 32.5471 2.33582 32.3497 2.14267C32.1524 1.94951 31.8358 1.95292 31.6427 2.15027L32.3573 2.84973ZM16.1464 2.85355L21.8355 8.54263L22.5426 7.83553L16.8536 2.14645L16.1464 2.85355ZM26.8117 8.51588L32.3573 2.84973L31.6427 2.15027L26.0971 7.81642L26.8117 8.51588ZM21.8355 8.54263C23.2128 9.91987 25.4494 9.90785 26.8117 8.51588L26.0971 7.81642C25.124 8.81068 23.5264 8.81927 22.5426 7.83553L21.8355 8.54263Z" fill="#3A3A3A"/>
<path d="M3.66699 3H10.0003" stroke="#3A3A3A" stroke-linecap="round"/>
<path d="M1 8L10.3333 8" stroke="#3A3A3A" stroke-linecap="round"/>
<path d="M3.66699 13H10.0003" stroke="#3A3A3A" stroke-linecap="round"/>
</svg>
